<?xml version="1.0" standalone="no"?>
<!DOCTYPE svg PUBLIC "-//W3C//DTD SVG 20010904//EN"
 "http://www.w3.org/TR/2001/REC-SVG-20010904/DTD/svg10.dtd">
<svg version="1.0" xmlns="http://www.w3.org/2000/svg"
 width="512.000000pt" height="512.000000pt" viewBox="0 0 512.000000 512.000000"
 preserveAspectRatio="xMidYMid meet">

<g transform="translate(0.000000,512.000000) scale(0.100000,-0.100000)"
fill="#000000" stroke="none">
<path d="M1615 4168 c-522 -186 -951 -341 -954 -344 -3 -2 60 -570 139 -1262
l145 -1256 809 -448 808 -448 807 446 c443 246 807 447 807 448 1 0 65 557
143 1236 78 679 144 1247 147 1261 5 25 2 26 -758 297 -420 150 -849 303 -954
340 l-191 68 -948 -338z m1541 -1453 c322 -726 588 -1323 591 -1328 2 -4 -97
-7 -220 -7 l-225 0 -119 298 -119 297 -505 3 -505 2 -120 -300 -119 -300 -223
0 c-140 0 -222 4 -220 10 23 69 1185 2656 1190 2652 4 -4 271 -601 594 -1327z"/>
<path d="M2387 2767 c-92 -222 -167 -407 -167 -410 0 -4 153 -7 340 -7 187 0
340 3 340 7 0 13 -335 813 -340 813 -3 0 -81 -182 -173 -403z"/>
</g>
</svg>
